<svg width="75" height="75" viewBox="0 0 75 75" fill="none" xmlns="http://www.w3.org/2000/svg">
<g clip-path="url(#clip0)">
<path d="M74.242 27.8346C71.6199 19.7643 63.7956 15.3462 55.7402 17.9598C54.6759 18.3052 53.5966 18.7837 52.5302 19.3782C52.7641 18.1808 52.8864 16.5009 52.8864 15.3809C52.8864 6.90075 45.9857 0 37.5055 0C29.0254 0 22.9911 6.90075 22.9911 15.3809C22.9911 16.5009 23.1134 18.1808 23.3473 19.3782C22.2809 18.7837 21.2037 18.3053 20.1395 17.9598C12.067 15.3462 3.37869 19.7665 0.75661 27.8366C-1.86708 35.921 2.54592 44.5895 10.6314 47.2151C11.698 47.5605 12.8524 47.8073 14.0625 47.9554C13.1699 48.7858 12.3803 49.6634 11.7236 50.569C6.72703 57.4428 8.24447 67.0556 15.1247 72.0524C22.0438 77.0898 30.7781 75.4857 35.7417 68.6514C36.4004 67.7458 36.9927 66.7245 37.5055 65.6172C38.0184 66.7245 38.6106 67.7458 39.2693 68.6514C44.2652 75.5301 52.9973 77.0517 59.8739 72.0524C66.7499 67.0586 68.2748 57.4472 63.275 50.569C62.6184 49.6634 61.8287 48.7858 60.936 47.9554C62.1463 47.8073 63.3007 47.5606 64.365 47.2151C72.4343 44.5962 76.8715 35.9415 74.242 27.8346ZM56.9912 36.0357L48.3684 38.8372C48.7564 42.2884 47.6631 45.1674 45.585 47.4398L50.9058 54.7639C52.6352 57.1425 49.0279 59.6595 47.3524 57.3474L42.0405 50.0355C40.6538 50.6688 39.1265 51.0432 37.5055 51.0432C35.8845 51.0432 34.3571 50.6688 32.9705 50.0355L27.6587 57.3474C25.9641 59.6859 22.3775 57.1403 24.1052 54.7639L29.426 47.4398C27.6386 45.485 26.5193 42.9079 26.5193 40.0567C26.5193 39.639 26.5971 39.2427 26.6427 38.837L18.0198 36.0355C15.2435 35.1324 16.6345 30.9604 19.376 31.8556L27.9969 34.6567C29.541 31.9495 32.1323 29.9341 35.2791 29.2928V20.2814C35.2791 17.3849 39.7029 17.3731 39.7029 20.2814V29.2928C42.8497 29.9341 45.4702 31.9496 47.0144 34.6567L55.6353 31.8556C58.3658 30.9573 59.77 35.1317 56.9912 36.0357Z" fill="#4CB4E2"/>
<path d="M37.5059 33.4648C33.871 33.4648 30.9141 36.4218 30.9141 40.0567C30.9141 43.6915 33.871 46.6485 37.5059 46.6485C41.1407 46.6485 44.0977 43.6915 44.0977 40.0567C44.0977 36.4218 41.1407 33.4648 37.5059 33.4648Z" fill="#4CB4E2"/>
</g>
<defs>
<clipPath id="clip0">
<rect width="75" height="75" fill="white"/>
</clipPath>
</defs>
</svg>
