<svg width="75" height="75" viewBox="0 0 75 75" fill="none" xmlns="http://www.w3.org/2000/svg">
<path d="M31.0565 43.9436C23.8978 36.785 22.2815 29.6264 21.9168 26.7583C21.8149 25.9652 22.0878 25.1699 22.6552 24.6066L28.4483 18.816C29.3004 17.9644 29.4517 16.6371 28.8129 15.6156L19.5892 1.29319C18.8826 0.16205 17.4316 -0.246191 16.2388 0.350522L1.43146 7.32423C0.466882 7.7992 -0.10047 8.82404 0.00904728 9.89363C0.784909 17.2643 3.99827 35.3833 21.8043 53.1906C39.6103 70.9979 57.7267 74.21 65.1013 74.9859C66.1709 75.0954 67.1957 74.528 67.6707 73.5635L74.6444 58.7561C75.2389 57.5659 74.8333 56.1188 73.7069 55.4109L59.3845 46.1898C58.3635 45.5503 57.0363 45.7005 56.1841 46.5518L50.3935 52.3449C49.8302 52.9123 49.0348 53.1852 48.2418 53.0833C45.3737 52.7186 38.2151 51.1023 31.0565 43.9436Z" fill="#4CB4E2"/>
<path d="M59.4828 40.0861C58.0545 40.0861 56.8966 38.9282 56.8966 37.4999C56.8845 26.7925 48.2074 18.1154 37.5 18.1033C36.0717 18.1033 34.9138 16.9454 34.9138 15.5171C34.9138 14.0888 36.0717 12.9309 37.5 12.9309C51.0629 12.9459 62.054 23.937 62.069 37.4999C62.069 38.9282 60.9111 40.0861 59.4828 40.0861Z" fill="#4CB4E2"/>
<path d="M72.4138 40.0862C70.9855 40.0862 69.8276 38.9283 69.8276 37.5C69.8077 19.6542 55.3458 5.19237 37.5 5.17241C36.0717 5.17241 34.9138 4.01453 34.9138 2.58621C34.9138 1.15788 36.0717 0 37.5 0C58.2013 0.022805 74.9772 16.7988 75 37.5C75 38.1859 74.7276 38.8437 74.2425 39.3287C73.7575 39.8137 73.0997 40.0862 72.4138 40.0862Z" fill="#4CB4E2"/>
</svg>
