<svg width="75" height="49" viewBox="0 0 75 49" fill="none" xmlns="http://www.w3.org/2000/svg">
<path d="M73.7303 6.14918C72.9407 5.66092 71.9544 5.61635 71.124 6.03132L53.5713 14.8089V8.42853C53.5713 3.99053 49.9736 0.392822 45.5356 0.392822H8.03571C3.59771 0.392822 0 3.99053 0 8.42853V40.5714C0 45.0094 3.59771 48.6071 8.03571 48.6071H45.5356C49.9736 48.6071 53.5713 45.0094 53.5713 40.5714V34.191L71.124 42.9821C72.4474 43.6433 74.0561 43.1067 74.7175 41.7833C74.9055 41.4071 75.0024 40.9918 75 40.5714V8.42853C75.0005 7.50003 74.5201 6.6376 73.7303 6.14918ZM26.7857 35.2143C20.8684 35.2143 16.0714 30.4173 16.0714 24.4999C16.0714 18.5826 20.8684 13.7856 26.7857 13.7856C32.7031 13.7856 37.5001 18.5826 37.5001 24.4999C37.5001 30.4173 32.703 35.2143 26.7857 35.2143Z" fill="#4CB4E2"/>
</svg>
