<?xml version="1.0" encoding="UTF-8" standalone="no"?>
<svg
   xmlns:dc="http://purl.org/dc/elements/1.1/"
   xmlns:cc="http://creativecommons.org/ns#"
   xmlns:rdf="http://www.w3.org/1999/02/22-rdf-syntax-ns#"
   xmlns:svg="http://www.w3.org/2000/svg"
   xmlns="http://www.w3.org/2000/svg"
   xmlns:sodipodi="http://sodipodi.sourceforge.net/DTD/sodipodi-0.dtd"
   xmlns:inkscape="http://www.inkscape.org/namespaces/inkscape"
   version="1.1"
   id="Layer_1"
   x="0px"
   y="0px"
   viewBox="0 0 511.997 511.997"
   style="enable-background:new 0 0 511.997 511.997;"
   xml:space="preserve"
   sodipodi:docname="dentist-tools.svg"
   inkscape:version="1.0.2 (e86c870879, 2021-01-15)"><metadata
   id="metadata63"><rdf:RDF><cc:Work
       rdf:about=""><dc:format>image/svg+xml</dc:format><dc:type
         rdf:resource="http://purl.org/dc/dcmitype/StillImage" /><dc:title></dc:title></cc:Work></rdf:RDF></metadata><defs
   id="defs61"><filter
     inkscape:collect="always"
     style="color-interpolation-filters:sRGB"
     id="filter976"
     x="-0.0001452"
     width="1.0002904"
     y="-0.0001452"
     height="1.0002904"><feGaussianBlur
       inkscape:collect="always"
       stdDeviation="0.030975878"
       id="feGaussianBlur978" /></filter></defs><sodipodi:namedview
   pagecolor="#ffffff"
   bordercolor="#666666"
   borderopacity="1"
   objecttolerance="10"
   gridtolerance="10"
   guidetolerance="10"
   inkscape:pageopacity="0"
   inkscape:pageshadow="2"
   inkscape:window-width="1920"
   inkscape:window-height="1020"
   id="namedview59"
   showgrid="false"
   inkscape:zoom="0.50754543"
   inkscape:cx="313.19369"
   inkscape:cy="220.86124"
   inkscape:window-x="0"
   inkscape:window-y="28"
   inkscape:window-maximized="1"
   inkscape:current-layer="Layer_1" />
<circle
   style="fill:#4cb4e2;filter:url(#filter976);fill-opacity:1"
   cx="255.99899"
   cy="255.99899"
   id="circle2"
   r="255.99899" />
<path
   style="fill:#FEFEFE;"
   d="M197.974,278.23c9.808,3.772,16.816,13.304,16.816,24.396v83.766h-52.24v-83.766  c0-11.092,7.008-20.625,16.813-24.396l3.333-53.297c-38.162-3.04-68.185-34.969-68.185-73.913c0-40.953,33.205-74.155,74.155-74.155  c40.953,0,74.158,33.202,74.158,74.155c0,38.947-30.023,70.876-68.182,73.913L197.974,278.23z"
   id="path4" />
<path
   style="fill:#4199c0;fill-opacity:1"
   d="M214.787,508.678V386.389h-52.24v108.01C179.18,500.923,196.668,505.746,214.787,508.678z"
   id="path6" />
<g
   id="g12">
	<path
   style="fill:#EEF3F7;"
   d="M188.67,88.846c34.341,0,62.175,27.832,62.175,62.173s-27.835,62.173-62.175,62.173   c-34.338,0-62.173-27.832-62.173-62.173S154.33,88.846,188.67,88.846z"
   id="path8" />
	<path
   style="fill:#EEF3F7;"
   d="M188.67,91.47c32.89,0,59.552,26.66,59.552,59.55c0,32.888-26.66,59.552-59.552,59.552   c-32.89,0-59.552-26.663-59.552-59.552S155.778,91.47,188.67,91.47z"
   id="path10" />
</g>
<g
   id="g18">
	<path
   style="fill:#FEFEFE;"
   d="M195.414,92.036c8.978,1.055,17.346,4.116,24.638,8.722l-75.556,89.846   c-5.839-6.452-10.272-14.203-12.827-22.762l63.744-75.807v0.002H195.414z M226.902,105.815c3.339,2.848,6.359,6.067,8.991,9.584   l-74.266,88.314c-3.937-2.004-7.617-4.427-10.985-7.219l76.256-90.682L226.902,105.815z"
   id="path14" />
	<path
   style="fill:#FEFEFE;"
   d="M367.871,278.23c9.808,3.772,16.816,13.304,16.816,24.396v83.766h-52.24v-83.766   c0-11.092,7.011-20.625,16.816-24.396l3.213-99.252c0.068-2.122,1.223-3.905,3.122-4.852c46.493-23.175,32.119-64.778,0.338-73.557   c-1.613-0.443-0.585-2.678,1.083-2.581c35.984,2.075,65.166,55.212,9.002,87.364c-0.931,0.535-1.453,1.482-1.416,2.555l3.261,90.32   L367.871,278.23z"
   id="path16" />
</g>
<path
   style="fill:#4199c0;fill-opacity:1"
   d="M384.687,477.334v-90.942h-52.237v113.993c18.39-5.75,35.888-13.522,52.237-23.048V477.334z"
   id="path20" />
<g
   id="g26">
	<path
   style="fill:#15BDB2;"
   d="M162.548,386.392h52.24v3.549h-52.24V386.392z"
   id="path22" />
	<path
   style="fill:#15BDB2;"
   d="M332.447,386.392h52.24v3.549h-52.24V386.392z"
   id="path24" />
</g>
<g
   id="g28">
</g>
<g
   id="g30">
</g>
<g
   id="g32">
</g>
<g
   id="g34">
</g>
<g
   id="g36">
</g>
<g
   id="g38">
</g>
<g
   id="g40">
</g>
<g
   id="g42">
</g>
<g
   id="g44">
</g>
<g
   id="g46">
</g>
<g
   id="g48">
</g>
<g
   id="g50">
</g>
<g
   id="g52">
</g>
<g
   id="g54">
</g>
<g
   id="g56">
</g>
</svg>
