<svg width="66" height="66" viewBox="0 0 66 66" fill="none" xmlns="http://www.w3.org/2000/svg">
<path d="M62.0039 11.7305H57.9408C57.1704 7.94788 54.1849 4.96239 50.4023 4.19197V0H46.5352V4.19197C42.7526 4.96239 39.7671 7.94788 38.9967 11.7305H34.9336V8.60147L27.1992 4.73428V22.5938L34.9336 18.7267V15.5977H38.9967C39.7671 19.3802 42.7526 22.3657 46.5352 23.1362V27.1992H50.4023V23.1362C54.1849 22.3657 57.1704 19.3802 57.9408 15.5977H62.0039V11.7305ZM53.9135 11.7305H50.4023V8.21928C52.0404 8.80389 53.3289 10.0925 53.9135 11.7305ZM46.5352 8.21928V11.7305H43.024C43.6086 10.0925 44.8971 8.80389 46.5352 8.21928ZM43.024 15.5977H46.5352V19.1088C44.8971 18.5242 43.6086 17.2357 43.024 15.5977ZM50.4023 19.1088V15.572H53.9135C53.3289 17.21 52.0404 18.5242 50.4023 19.1088Z" fill="black"/>
<path d="M11.7305 62.0039H15.5977V66H19.4648V62.0039H23.332V58.1367H11.7305V62.0039Z" fill="black"/>
<path d="M10.5476 31.0664H26.3004L23.7223 27.1992H9.44287L10.5476 31.0664Z" fill="black"/>
<path d="M7.4292 54.2695H27.1992V34.9336H11.3749L7.4292 54.2695Z" fill="black"/>
<path d="M3.99609 3.99609H23.332V23.332H3.99609V3.99609Z" fill="black"/>
</svg>
