<svg width="66" height="66" viewBox="0 0 66 66" fill="none" xmlns="http://www.w3.org/2000/svg">
<path d="M22.0863 38.0571L5.60278 51.1066C4.00847 52.3688 3.09375 54.2591 3.09375 56.2917C3.09375 59.9392 6.06066 62.9061 9.70716 62.9061C11.7418 62.9061 13.6321 61.9914 14.8933 60.3971L27.9428 43.9136C25.4265 42.6287 23.3712 40.5744 22.0863 38.0571ZM16.5 53.6249C14.2251 53.6249 12.375 51.7748 12.375 49.4999C12.375 47.2249 14.2251 45.3749 16.5 45.3749C18.7749 45.3749 20.625 47.2249 20.625 49.4999C20.625 51.7748 18.7749 53.6249 16.5 53.6249ZM21.3541 46.104L19.8959 44.6458L21.9584 42.5833L23.4166 44.0415L21.3541 46.104Z" fill="black"/>
<path d="M25.6781 35.2134L23.7507 36.7386C24.88 39.1662 26.8342 41.1193 29.2607 42.2475L30.7859 40.3212C28.8121 38.9145 27.0858 37.1882 25.6781 35.2134Z" fill="black"/>
<path d="M16.5 51.5625C17.6391 51.5625 18.5625 50.6391 18.5625 49.5C18.5625 48.3609 17.6391 47.4375 16.5 47.4375C15.3609 47.4375 14.4375 48.3609 14.4375 49.5C14.4375 50.6391 15.3609 51.5625 16.5 51.5625Z" fill="black"/>
<path d="M45.375 13.4062C45.9445 13.4062 46.4062 12.9445 46.4062 12.375C46.4062 11.8055 45.9445 11.3438 45.375 11.3438C44.8055 11.3438 44.3438 11.8055 44.3438 12.375C44.3438 12.9445 44.8055 13.4062 45.375 13.4062Z" fill="black"/>
<path d="M43.3125 7.21875C34.783 7.21875 27.8438 14.158 27.8438 22.6875C27.8438 31.217 34.783 38.1562 43.3125 38.1562C51.842 38.1562 58.7812 31.217 58.7812 22.6875C58.7812 14.158 51.842 7.21875 43.3125 7.21875ZM34.0312 22.6875H31.9688C31.9688 16.7207 36.6022 11.8264 42.4576 11.3871C42.8722 10.1671 44.0168 9.28125 45.375 9.28125C47.0807 9.28125 48.4688 10.6693 48.4688 12.375C48.4688 14.0807 47.0807 15.4688 45.375 15.4688C44.0478 15.4688 42.9227 14.6242 42.4844 13.4485C37.753 13.8693 34.0312 17.8499 34.0312 22.6875ZM44.1674 33.9879C43.7528 35.2079 42.6082 36.0938 41.25 36.0938C39.5443 36.0938 38.1562 34.7057 38.1562 33C38.1562 31.2943 39.5443 29.9062 41.25 29.9062C42.5772 29.9062 43.7023 30.7508 44.1406 31.9265C48.872 31.5057 52.5938 27.5251 52.5938 22.6875H54.6562C54.6562 28.6543 50.0228 33.5486 44.1674 33.9879Z" fill="black"/>
<path d="M41.25 34.0312C41.8195 34.0312 42.2812 33.5695 42.2812 33C42.2812 32.4305 41.8195 31.9688 41.25 31.9688C40.6805 31.9688 40.2188 32.4305 40.2188 33C40.2188 33.5695 40.6805 34.0312 41.25 34.0312Z" fill="black"/>
<path d="M43.3125 3.09375C32.5081 3.09375 23.7188 11.8831 23.7188 22.6875C23.7188 33.4919 32.5081 42.2812 43.3125 42.2812C54.1169 42.2812 62.9062 33.4919 62.9062 22.6875C62.9062 11.8831 54.1169 3.09375 43.3125 3.09375ZM43.3125 40.2188C33.6456 40.2188 25.7812 32.3544 25.7812 22.6875C25.7812 13.0206 33.6456 5.15625 43.3125 5.15625C52.9794 5.15625 60.8438 13.0206 60.8438 22.6875C60.8438 32.3544 52.9794 40.2188 43.3125 40.2188Z" fill="black"/>
</svg>
