<svg width="90" height="90" viewBox="0 0 90 90" fill="none" xmlns="http://www.w3.org/2000/svg">
<g clip-path="url(#clip0)">
<path d="M89.1549 32.6668C88.6104 32.1224 87.8635 31.8224 87.0518 31.8224C86.1221 31.8224 85.1926 32.2187 84.5018 32.9095L73.1939 44.2174C73.0941 44.3172 72.9441 44.4362 72.7973 44.4362C72.7071 44.4362 72.6393 44.392 72.6194 44.3773L71.3634 43.1214C71.1959 42.9539 71.0598 42.6904 71.3634 42.3868L85.4865 28.2638C86.8363 26.914 86.9454 24.8266 85.7292 23.6108C85.185 23.0665 84.438 22.7665 83.6263 22.7665C82.6966 22.7665 81.7671 23.1629 81.0763 23.8537L66.9532 37.9766C66.7042 38.2254 66.5626 38.2692 66.5177 38.2768L64.8907 36.6487C64.849 36.5609 64.8859 36.3833 65.1229 36.1461L81.7797 19.4894C83.1295 18.1395 83.2386 16.0521 82.0224 14.8363C81.4782 14.2921 80.7312 13.9921 79.9195 13.9921C78.9896 13.9921 78.0601 14.3884 77.3695 15.0792L60.7127 31.736C60.5574 31.8913 60.4089 31.9769 60.2951 31.9769C60.2433 31.9769 60.2064 31.9583 60.1914 31.9492L58.7509 30.5087C58.7003 30.3957 58.6379 30.1503 58.8825 29.9057L73.5685 15.2195C74.9183 13.8697 75.0272 11.7824 73.8114 10.5666C73.2669 10.0222 72.52 9.72217 71.7081 9.72217C70.7784 9.72217 69.8489 10.1185 69.1581 10.8093L53.0996 26.8676L53.4406 22.3087C53.5319 21.0874 53.2563 19.958 52.6662 19.1313L52.6525 19.1107C51.9702 18.071 50.8049 17.4897 49.3711 17.4735L49.3454 17.4733C48.0969 17.4733 46.246 18.4788 46.0186 20.3665C45.9685 20.7811 45.9161 21.2262 45.8607 21.6967C45.1481 27.7533 43.9555 37.8904 41.0207 42.0563C38.8229 45.1759 29.3637 51.8155 29.2685 51.8822L29.2373 51.9058C29.0494 52.0618 28.935 52.2914 28.923 52.5385C28.9127 52.7823 29.0054 53.0212 29.1768 53.1935L50.4244 74.5675C50.5869 74.731 50.8129 74.8251 51.0442 74.8251L51.0805 74.8243C51.3255 74.814 51.5562 74.7006 51.7136 74.5123L51.7388 74.4796C51.8025 74.3884 58.1557 65.3175 60.7893 62.6287C61.9704 61.423 63.3734 60.6901 64.8589 59.9144C66.3587 59.1311 67.9097 58.3212 69.2525 56.9782L88.9116 37.3193C90.2618 35.9702 90.3709 33.8828 89.1549 32.6668Z" fill="#4CB4E2"/>
<path d="M42.1257 69.4235L27.2787 54.488C26.7478 53.9538 26.4615 53.2158 26.4925 52.466C26.5288 51.6977 26.8844 50.9789 27.4679 50.4947L27.6192 50.3795C30.1972 48.5743 37.2539 43.3702 38.9237 40.9999C40.7123 38.4611 41.576 34.6694 42.3208 29.7582C42.5159 28.957 42.4901 28.4344 42.2395 28.1146C42.0983 27.9342 41.8881 27.8308 41.6628 27.8308C41.5687 27.8308 41.4741 27.8489 41.3892 27.883C41.0679 28.013 40.8547 28.1557 40.7637 28.2167L40.7458 28.2286C39.8793 28.7639 39.1879 29.6984 38.7994 30.8601L37.3487 35.1955L28.7589 14.1727C28.2125 12.836 26.9573 11.9377 25.6351 11.9377C25.2639 11.9377 24.903 12.0084 24.5625 12.1475C23.7837 12.4656 23.1925 13.1054 22.8972 13.9489C22.6094 14.7716 22.6404 15.6891 22.9848 16.5318L30.8408 35.758C30.9731 36.0816 30.8159 36.2845 30.7304 36.3645L28.8443 37.1354C28.8383 37.1364 28.8285 37.1375 28.8166 37.1375C28.6353 37.1375 28.5059 36.887 28.4448 36.7374L19.535 14.9309C18.9888 13.5942 17.7336 12.6961 16.4114 12.6961C16.0402 12.6961 15.6791 12.7666 15.3385 12.9059C14.5598 13.2242 13.9686 13.8638 13.6735 14.7072C13.3857 15.5298 13.4167 16.4473 13.7611 17.29L22.6715 39.0961C22.7982 39.4066 22.7634 39.5846 22.6911 39.6491L20.5638 40.5183L20.56 40.5211C20.5128 40.4924 20.3986 40.3763 20.2754 40.0751L12.7206 21.586C12.1743 20.2493 10.919 19.351 9.59682 19.351C9.22563 19.351 8.86471 19.4216 8.52417 19.5608C6.9324 20.2114 6.22466 22.1782 6.94668 23.9451L14.5016 42.4342C14.6641 42.8319 14.4366 43.022 14.2114 43.114L12.5736 43.7833C12.5616 43.7861 12.5354 43.7911 12.5019 43.7911C12.5017 43.7911 12.5013 43.7911 12.5009 43.7911C12.4402 43.7911 12.2592 43.7892 12.1055 43.4136L6.05676 28.6099C5.51063 27.2732 4.25542 26.375 2.9332 26.375C2.56201 26.375 2.20109 26.4456 1.86035 26.5847C0.268593 27.2354 -0.438962 29.2021 0.28287 30.969L10.7991 56.7056C11.5173 58.4634 12.634 59.8109 13.7137 61.1137C14.7831 62.4039 15.7929 63.6228 16.4152 65.1917C17.8025 68.6901 20.1489 79.5132 20.1725 79.6223L20.1829 79.6622C20.2553 79.8966 20.4243 80.0905 20.6457 80.1945C20.7616 80.2489 20.8905 80.2778 21.0184 80.2778C21.1328 80.2778 21.2445 80.2558 21.3529 80.211C21.507 80.1463 36.825 73.7229 41.9517 71.7226C42.5909 71.4731 42.7763 71.0872 42.8192 70.8072C42.9216 70.1374 42.3031 69.5707 42.1257 69.4235Z" fill="#4CB4E2"/>
</g>
<defs>
<clipPath id="clip0">
<rect width="90" height="90" fill="white"/>
</clipPath>
</defs>
</svg>
