<svg width="67" height="67" viewBox="0 0 67 67" fill="none" xmlns="http://www.w3.org/2000/svg">
<path d="M44.8455 67H59.6012C63.6884 67 67 63.6884 67 59.6012V18.5945H44.8455V67ZM50.2053 22.4077H53.3821C54.5177 22.4077 55.4397 23.3296 55.4397 24.4652C55.4397 25.6008 54.5177 26.5227 53.3821 26.5227H50.2053C49.0697 26.5227 48.1477 25.6008 48.1477 24.4652C48.1477 23.3296 49.0674 22.4077 50.2053 22.4077ZM50.2053 29.5626H53.3821C54.5177 29.5626 55.4397 30.4845 55.4397 31.6201C55.4397 32.7557 54.5177 33.6777 53.3821 33.6777H50.2053C49.0697 33.6777 48.1477 32.7557 48.1477 31.6201C48.1477 30.4845 49.0674 29.5626 50.2053 29.5626Z" fill="#4CB4E2"/>
<path d="M23.7754 48.4172C23.7754 51.1528 26.0001 53.3775 28.7358 53.3775H41.0485V43.4568H28.7358C26.0025 43.4568 23.7754 45.6815 23.7754 48.4172Z" fill="#4CB4E2"/>
<path d="M41.4642 57.0932H28.7358C23.952 57.0932 20.0598 53.201 20.0598 48.4172C20.0598 43.6333 23.952 39.7411 28.7358 39.7411H41.4642V18.5945H0V59.6012C0 63.6884 3.31157 67 7.39877 67H41.4642V57.0932Z" fill="#4CB4E2"/>
<path d="M59.6012 0H7.39877C3.31157 0 0 3.31157 0 7.39877V15.2132H67V7.39877C67 3.31157 63.6861 0 59.6012 0ZM42.1749 9.98114H24.8251C23.6895 9.98114 22.7676 9.0592 22.7676 7.9236C22.7676 6.78801 23.6895 5.86607 24.8251 5.86607H42.1749C43.3104 5.86607 44.2324 6.78801 44.2324 7.9236C44.2324 9.0592 43.3104 9.98114 42.1749 9.98114ZM55.9576 9.98114C54.822 9.98114 53.9 9.0592 53.9 7.9236C53.9 6.78801 54.822 5.86607 55.9576 5.86607C57.0932 5.86607 58.0151 6.78801 58.0151 7.9236C58.0151 9.0592 57.0932 9.98114 55.9576 9.98114Z" fill="#4CB4E2"/>
</svg>
