<svg width="30" height="31" viewBox="0 0 30 31" fill="none" xmlns="http://www.w3.org/2000/svg">
<g clip-path="url(#clip0)">
<path d="M15 12.166C13.4143 12.166 12.1289 13.4514 12.1289 15.0371C12.1289 16.6228 13.4143 17.9082 15 17.9082C16.5857 17.9082 17.8711 16.6228 17.8711 15.0371C17.8711 13.4514 16.5857 12.166 15 12.166Z" fill="#0079BE"/>
<path d="M20.0796 8.32269C20.4536 8.46071 20.7921 8.68089 21.07 8.96699C21.3561 9.24486 21.5763 9.58314 21.7143 9.95737C21.8322 10.2609 21.9725 10.7168 22.0107 11.5566C22.0521 12.465 22.061 12.7374 22.061 15.0372C22.061 17.3372 22.0523 17.6096 22.0109 18.5178C21.9725 19.3575 21.8322 19.8137 21.7143 20.117C21.5763 20.4912 21.3561 20.8297 21.07 21.1073C20.7921 21.3934 20.4538 21.6136 20.0796 21.7519C19.7761 21.8698 19.3199 22.0101 18.4802 22.0483C17.572 22.0897 17.2996 22.0986 14.9996 22.0986C12.6998 22.0986 12.4274 22.0897 11.519 22.0483C10.6792 22.0101 10.2233 21.8698 9.91977 21.7519C9.54555 21.6136 9.20726 21.3937 8.9294 21.1076C8.6433 20.8297 8.42311 20.4914 8.2851 20.1172C8.16699 19.8137 8.02669 19.3575 7.98847 18.5178C7.94704 17.6096 7.93834 17.3374 7.93834 15.0374C7.93834 12.7371 7.94704 12.4648 7.98846 11.5568C8.02669 10.717 8.16699 10.2609 8.2851 9.95737C8.57486 9.20618 9.16858 8.61246 9.91977 8.32269C10.2233 8.20482 10.6792 8.06451 11.519 8.02606C12.4274 7.98463 12.6998 7.97594 14.9996 7.97594C17.2996 7.97594 17.572 7.98463 18.4802 8.02606C19.3199 8.06428 19.7761 8.20459 20.0796 8.32269V8.32269ZM10.5769 15.0372C10.5769 17.48 12.5569 19.4603 14.9998 19.4603C17.4427 19.4603 19.4227 17.48 19.4227 15.0372C19.4227 12.5945 17.4427 10.6143 14.9998 10.6143C12.5569 10.6143 10.5769 12.5945 10.5769 15.0372ZM18.5639 10.4394C18.5639 11.0102 19.0267 11.473 19.5976 11.473C20.1684 11.473 20.6312 11.0102 20.6312 10.4394C20.6312 9.86856 20.1684 9.40576 19.5976 9.40576C19.0267 9.40599 18.5639 9.86856 18.5639 10.4394Z" fill="#0079BE"/>
<path d="M30 15.0371C30 23.3201 23.283 30.0371 15 30.0371C6.717 30.0371 1.61374e-06 23.3201 1.25168e-06 15.0371C8.89616e-07 6.7541 6.717 0.0371085 15 0.0371081C23.283 0.0371078 30 6.7541 30 15.0371ZM11.4489 6.47578C10.532 6.51744 9.90601 6.66324 9.35806 6.8761C8.20107 7.32356 7.28645 8.23817 6.83899 9.39517C6.62613 9.94289 6.48056 10.5691 6.43868 11.4858C6.39679 12.4043 6.38672 12.6977 6.38672 15.0369C6.38672 17.3763 6.39679 17.6695 6.43868 18.5882C6.48056 19.5049 6.62613 20.1311 6.83899 20.6788C7.05528 21.2538 7.39426 21.7742 7.83257 22.2045C8.26264 22.6426 8.78334 22.9816 9.35806 23.1979C9.90578 23.4108 10.532 23.5565 11.4487 23.5982C12.3674 23.6405 12.6608 23.6504 15 23.6504C17.3392 23.6504 17.6326 23.6405 18.5511 23.5984C19.468 23.5568 20.094 23.4112 20.6419 23.1983C21.2167 22.9821 21.7374 22.6429 22.1674 22.2045C22.6057 21.7745 22.9447 21.2538 23.161 20.679C23.3739 20.1311 23.5194 19.5051 23.5613 18.5882C23.6032 17.6697 23.6133 17.3763 23.6133 15.0371C23.6133 12.6979 23.6032 12.4045 23.5611 11.486C23.5194 10.5691 23.3739 9.94311 23.1612 9.39517C22.9449 8.82045 22.6057 8.29974 22.1674 7.86944C21.7371 7.43136 21.2167 7.09216 20.6419 6.8761C20.094 6.66301 19.468 6.51744 18.5511 6.47555C17.6326 6.43367 17.3392 6.42383 15 6.42383C12.6608 6.42383 12.3674 6.43367 11.4489 6.47578V6.47578Z" fill="#0079BE"/>
</g>
<defs>
<clipPath id="clip0">
<rect width="30" height="30" fill="white" transform="matrix(-4.37114e-08 -1 -1 4.37114e-08 30 30.0371)"/>
</clipPath>
</defs>
</svg>
