<svg width="66" height="66" viewBox="0 0 66 66" fill="none" xmlns="http://www.w3.org/2000/svg">
<g clip-path="url(#clip0)">
<path d="M10.3126 49.5C9.60584 49.5 8.92659 49.1343 8.54434 48.499L0.294339 34.749C-0.035661 34.2017 -0.090661 33.5335 0.143089 32.9368L12.5181 1.31175C12.8261 0.51975 13.5878 0 14.4376 0H22.6876C23.3971 0 24.0543 0.363 24.4311 0.96525C24.8106 1.56475 24.8518 2.31275 24.5466 2.9535L9.72134 33.957L12.3366 47.0333C12.5346 48.0178 11.9928 49.0023 11.0578 49.3625C10.8131 49.4533 10.5601 49.5 10.3126 49.5Z" fill="black"/>
<path d="M55.6875 49.5C55.44 49.5 55.187 49.4532 54.9423 49.3597C54.0073 48.9995 53.4655 48.0177 53.6635 47.0305L56.2788 33.9543L41.4508 2.95075C41.1455 2.31275 41.1895 1.562 41.5663 0.9625C41.9458 0.363 42.603 0 43.3125 0H51.5625C52.4123 0 53.174 0.51975 53.482 1.31175L65.857 32.9368C66.0908 33.5335 66.033 34.2017 65.7058 34.749L57.4558 48.499C57.0735 49.1343 56.3943 49.5 55.6875 49.5Z" fill="black"/>
<path d="M40.0895 66C37.7822 66 35.7885 64.449 35.3457 62.3095L33.803 53.559C33.7645 53.3857 33.44 53.1355 32.9972 53.1355C32.5545 53.1355 32.23 53.3857 32.1805 53.6195L30.6597 62.249C30.2115 64.449 28.2177 66 25.9105 66C23.4465 66 21.3812 64.2537 21.1062 61.941L20.5122 56.9168C20.4765 56.6583 20.207 55.2255 18.7797 48.631C18.1802 45.859 17.875 43.0128 17.875 40.1693C17.875 36.2175 21.0815 33 25.0222 33C26.3395 33 27.6375 33.3602 28.7705 34.0422C31.3802 35.6152 34.6197 35.6153 37.224 34.045C38.3625 33.3603 39.6605 33 40.9777 33C44.9185 33 48.125 36.2175 48.125 40.1693C48.125 43.0128 47.8197 45.859 47.2202 48.6337C45.793 55.2227 45.5235 56.6555 45.485 56.925L44.8937 61.941C44.6215 64.2537 42.5562 66 40.0895 66Z" fill="black"/>
</g>
<defs>
<clipPath id="clip0">
<rect width="66" height="66" fill="white"/>
</clipPath>
</defs>
</svg>
