<svg width="66" height="66" viewBox="0 0 66 66" fill="none" xmlns="http://www.w3.org/2000/svg">
<path d="M33 7.08984C21.5863 7.08984 0 8.69916 0 14.79V23.5898C0.00251769 24.3723 0.421463 25.0944 1.10023 25.4842V26.89C1.10023 28.7124 2.57762 30.1897 4.39993 30.1897H5.70259C6.16685 31.5035 7.40657 32.3842 8.79987 32.3897H12.1001C12.6686 32.3867 13.2265 32.2351 13.7179 31.9496C14.3197 32.9063 15.3701 33.4879 16.5 33.4899H20.8999C21.4684 33.4864 22.0264 33.3349 22.5183 33.0499C23.1195 34.0066 24.1699 34.5877 25.2999 34.5897H30.8C31.6143 34.5872 32.3988 34.281 33 33.7316C33.6012 34.281 34.3857 34.5872 35.2 34.5897H40.7001C41.8301 34.5877 42.8805 34.0066 43.4817 33.0499C43.9736 33.3349 44.5316 33.4864 45.1001 33.4899H49.5C50.6299 33.4879 51.6803 32.9063 52.2821 31.9496C52.7735 32.2351 53.3314 32.3867 53.8999 32.3897H57.2001C58.5934 32.3842 59.8331 31.5035 60.2974 30.1897H61.6001C63.4224 30.1897 64.8998 28.7124 64.8998 26.89V25.4842C65.5785 25.0944 65.9975 24.3723 66 23.5898V14.79C66 8.69916 44.4137 7.08984 33 7.08984ZM33 9.28981C52.9286 9.28981 63.8 12.9198 63.8 14.79V21.3093C63.2658 20.8249 62.5669 20.5621 61.8453 20.5746C61.1373 20.5767 60.449 20.8083 59.884 21.2348C59.0914 19.8365 57.5838 18.9981 55.978 19.0635C54.4735 19.0665 53.0404 19.7035 52.0298 20.8179C51.1305 19.3515 49.5025 18.4925 47.7839 18.5781C46.0382 18.5781 44.3795 19.3415 43.2445 20.6683C42.2732 18.9855 40.4403 17.9895 38.5002 18.0897C36.2866 18.0917 34.2211 19.2025 33 21.049C31.7789 19.2025 29.7134 18.0917 27.4998 18.0897C25.5572 17.989 23.7223 18.987 22.7514 20.6728C21.6165 19.346 19.9578 18.5821 18.2115 18.5826C16.4955 18.497 14.8695 19.3541 13.9702 20.8179C12.9596 19.706 11.528 19.0706 10.0255 19.0676C8.41818 19.0016 6.90907 19.8395 6.116 21.2393C5.55103 20.8128 4.86319 20.5812 4.15572 20.5792C3.43465 20.5651 2.73523 20.8264 2.19997 21.3093V14.79C2.19997 12.9198 13.0714 9.28981 33 9.28981ZM3.3002 26.89V23.9559C3.3002 23.759 3.342 22.7746 4.15572 22.7746C4.99612 22.9121 5.58476 23.6795 5.50017 24.5269V27.9898H4.39993C3.79266 27.9898 3.3002 27.4973 3.3002 26.89ZM12.1001 30.1897H8.79987C8.1926 30.1897 7.70013 29.6973 7.70013 29.09V23.5898C7.65935 22.9624 7.89098 22.3481 8.3356 21.9035C8.78023 21.4589 9.39455 21.2272 10.022 21.2675C11.7763 21.2695 13.1983 22.6915 13.1998 24.4459V29.09C13.1998 29.6973 12.7073 30.1897 12.1001 30.1897ZM20.8999 31.29H16.5C15.8927 31.29 15.3998 30.7975 15.3998 30.1897V23.5898C15.3635 22.8335 15.648 22.0968 16.1833 21.5616C16.7185 21.0263 17.4552 20.7418 18.2115 20.7781C20.3032 20.7806 21.9982 22.476 22.0002 24.5677V30.1897C22.0002 30.7975 21.5077 31.29 20.8999 31.29ZM30.8 32.3897H25.2999C24.6926 32.3897 24.2001 31.8972 24.2001 31.29V23.5898C24.1573 22.7021 24.4912 21.8375 25.1196 21.2091C25.748 20.5807 26.6121 20.2468 27.4998 20.2896C29.9299 20.2896 31.8998 22.26 31.8998 24.6901V31.29C31.8998 31.8972 31.4073 32.3897 30.8 32.3897ZM41.7999 31.29C41.7999 31.8972 41.3074 32.3897 40.7001 32.3897H35.2C34.5927 32.3897 34.1002 31.8972 34.1002 31.29V24.6901C34.1002 22.26 36.0701 20.2896 38.5002 20.2896C39.3879 20.2468 40.252 20.5807 40.8804 21.2091C41.5088 21.8375 41.8427 22.7021 41.7999 23.5898V31.29ZM50.6002 30.1897C50.6002 30.7975 50.1073 31.29 49.5 31.29H45.1001C44.4923 31.29 43.9998 30.7975 43.9998 30.1897V24.5677C44.0018 22.476 45.6968 20.7806 47.7885 20.7781C48.5448 20.7418 49.2815 21.0263 49.8167 21.5616C50.352 22.0968 50.6365 22.8335 50.6002 23.5898V30.1897ZM58.2999 29.09C58.2999 29.6973 57.8074 30.1897 57.2001 30.1897H53.8999C53.2927 30.1897 52.8002 29.6973 52.8002 29.09V24.4459C52.8017 22.6915 54.2237 21.2695 55.978 21.2675C56.6055 21.2272 57.2198 21.4589 57.6644 21.9035C58.109 22.3481 58.3407 22.9624 58.2999 23.5898V29.09ZM62.6998 26.89C62.6998 27.4973 62.2073 27.9898 61.6001 27.9898H60.4998V24.5269C60.4152 23.6795 61.0044 22.9116 61.8453 22.7746C62.6595 22.7746 62.6998 23.759 62.6998 23.9559V26.89Z" fill="black"/>
<path d="M1.10022 42.8209V51.3177C1.10022 57.2277 21.9669 58.7897 33 58.7897C44.0331 58.7897 64.8997 57.2277 64.8997 51.3177V42.8209C64.8972 42.0269 64.4581 41.2987 63.7572 40.9256C63.7839 40.7438 63.798 40.56 63.8 40.3757V38.4628C63.798 36.6833 62.3554 35.2412 60.5759 35.2396H60.4243C59.5577 35.2401 58.7279 35.5906 58.1231 36.211C57.322 35.4154 56.2389 34.9692 55.1099 34.9692H53.7901C52.4986 34.9718 51.2775 35.5574 50.4668 36.5619C49.8651 36.2427 49.1953 36.074 48.5146 36.0695H46.09C44.5864 36.073 43.1962 36.8671 42.4283 38.1592C41.6679 37.5232 40.7097 37.1732 39.7187 37.1692H36.1899C34.9683 37.1712 33.8067 37.6984 33 38.6159C32.1933 37.6984 31.0316 37.1712 29.8101 37.1692H26.2898C25.2988 37.1732 24.3406 37.5232 23.5808 38.1592C22.8129 36.8671 21.4221 36.073 19.919 36.0695H17.4899C16.8092 36.074 16.1389 36.2427 15.5377 36.5619C14.7255 35.5559 13.5029 34.9707 12.2098 34.9692H10.89C9.76111 34.9687 8.67799 35.4154 7.87686 36.211C7.27211 35.5906 6.44228 35.2406 5.57568 35.2396H5.42412C3.64461 35.2417 2.20247 36.6833 2.19995 38.4628V40.3722C2.20197 40.5565 2.21606 40.7403 2.24275 40.9226C1.54082 41.2962 1.10173 42.0258 1.10022 42.8209ZM59.4001 38.4628C59.4011 37.8978 59.8593 37.4406 60.4243 37.4396H60.5759C61.1408 37.4406 61.5985 37.8978 61.6001 38.4628V40.3722C61.6001 40.5706 61.5593 41.555 60.745 41.555C59.9041 41.4181 59.315 40.6502 59.4001 39.8027V38.4628ZM53.7901 37.1692H55.1099C56.264 37.1692 57.2001 38.1048 57.2001 39.2594V43.4997C57.2283 44.113 56.9886 44.7082 56.543 45.1307C56.0974 45.5531 55.4901 45.7606 54.8788 45.6997H54.7252C54.0193 45.7022 53.336 45.4509 52.8002 44.9912V40.3546C52.7982 39.5343 52.5585 38.7322 52.1103 38.0449C52.496 37.499 53.1214 37.1732 53.7901 37.1692ZM43.9998 40.3591C43.9998 39.205 44.9359 38.2694 46.09 38.2694H48.51C49.6641 38.2694 50.6002 39.205 50.6002 40.3591V45.67C50.6219 46.4097 50.3278 47.1237 49.791 47.6333C49.2543 48.1429 48.5261 48.3997 47.7885 48.3397H47.6203C45.6237 48.3342 44.0069 46.7178 43.9998 44.7218V40.3546V40.3591ZM36.1899 39.3692H39.7102C40.8643 39.3692 41.7999 40.3047 41.7999 41.4594V47.8327C41.7999 48.4027 41.7999 49.9229 38.5002 49.9229H38.3108C37.1925 49.9214 36.1199 49.4757 35.3304 48.6837C34.5403 47.8916 34.0977 46.818 34.1002 45.6997V41.4548C34.1022 40.3022 35.0373 39.3692 36.1899 39.3692ZM26.2898 39.3692H29.8101C30.9642 39.3692 31.8997 40.3047 31.8997 41.4594V45.6997C31.8967 48.024 30.0135 49.9073 27.6891 49.9093H27.4998C24.2001 49.9093 24.2001 48.3936 24.2001 47.8196V41.4548C24.2026 40.3022 25.1372 39.3692 26.2898 39.3692ZM19.919 38.2694C21.0731 38.2694 22.0087 39.205 22.0087 40.3591V44.7263C21.9996 46.7244 20.3777 48.3392 18.3797 48.3397H18.2115C17.4733 48.4002 16.7442 48.1423 16.2074 47.6318C15.6707 47.1212 15.3771 46.4061 15.3997 45.6654V40.3546C15.3997 39.2005 16.3358 38.2649 17.4899 38.2649L19.919 38.2694ZM10.8986 37.1692H12.2189C12.8866 37.1722 13.5115 37.4965 13.8987 38.0403C13.4505 38.7277 13.2109 39.5298 13.2088 40.3506V44.9857C12.6741 45.4479 11.9908 45.7017 11.2838 45.7007H11.1297C10.5174 45.7646 9.90714 45.5582 9.45949 45.1352C9.01184 44.7122 8.77115 44.115 8.79985 43.4997V39.2539C8.80287 38.1018 9.73795 37.1692 10.89 37.1692H10.8986ZM4.39992 38.4628C4.40042 37.8978 4.85915 37.4396 5.42412 37.4396H5.57568C6.14116 37.4396 6.59938 37.8978 6.59988 38.4628V39.8027C6.68498 40.6502 6.09634 41.4176 5.25594 41.555C4.44171 41.555 4.39992 40.5651 4.39992 40.3722V38.4628ZM5.25594 43.755C5.7202 43.7535 6.17892 43.6513 6.59988 43.4559V43.4997C6.57571 44.6951 7.04803 45.8477 7.90506 46.6816C8.76208 47.5154 9.92627 47.9565 11.1212 47.8996H11.2747C12.0432 47.8961 12.8005 47.7224 13.4939 47.3916C14.1792 49.3826 16.1097 50.6711 18.2115 50.5397H18.3797C19.78 50.5342 21.13 50.0201 22.1794 49.093C22.5787 50.4692 23.8295 52.1118 27.4998 52.1118H27.6891C29.8181 52.1118 31.8081 51.0543 33 49.2899C34.1914 51.0553 36.1814 52.1133 38.3108 52.1138H38.5002C42.175 52.1138 43.4212 50.4717 43.8206 49.0956C44.8699 50.0216 46.2204 50.5347 47.6203 50.5397H47.7885C49.8897 50.6726 51.8203 49.3851 52.5061 47.3946C53.199 47.7259 53.9568 47.8996 54.7252 47.9032H54.8788C56.0737 47.9601 57.2379 47.519 58.0949 46.6846C58.9519 45.8507 59.4243 44.6986 59.4001 43.5032V43.4524C59.8215 43.6488 60.2803 43.7515 60.745 43.7525C61.4661 43.7661 62.1655 43.5042 62.6998 43.0203V51.3177C62.6998 53.1073 52.2171 56.5897 33 56.5897C13.7829 56.5897 3.30019 53.1073 3.30019 51.3177L3.26242 42.9816C3.8002 43.4906 4.51573 43.7681 5.25594 43.755Z" fill="black"/>
</svg>
