<svg width="66" height="36" viewBox="0 0 66 36" fill="none" xmlns="http://www.w3.org/2000/svg">
<path d="M64.0664 0.533203H1.93359C0.865734 0.533203 0 1.39894 0 2.4668C0 11.2814 3.43264 19.5684 9.66539 25.8014C15.8984 32.0342 24.1854 35.4668 33 35.4668C41.8146 35.4668 50.1016 32.0342 56.3346 25.8014C62.5674 19.5684 66 11.2814 66 2.4668C66 1.39894 65.1343 0.533203 64.0664 0.533203ZM31.0664 12.1831H23.2837V4.40039H31.0664V12.1831ZM34.9336 4.40039H42.7163V12.1831H34.9336V4.40039ZM34.9336 27.7002H38.833V31.0112C37.5611 31.2708 36.2594 31.447 34.9336 31.5343V27.7002ZM31.0664 31.5343C29.7406 31.447 28.4389 31.2706 27.167 31.0112V27.7002H31.0664V31.5343ZM42.7002 29.9384V25.7666C42.7002 24.6987 41.8345 23.833 40.7666 23.833H25.2334C24.1655 23.833 23.2998 24.6987 23.2998 25.7666V29.9384C12.5708 26.1385 4.70933 16.2211 3.93061 4.40039H19.4165V14.1167C19.4165 15.1846 20.2822 16.0503 21.3501 16.0503H44.6499C45.7178 16.0503 46.5835 15.1846 46.5835 14.1167V4.40039H62.0694C61.2907 16.2211 53.4292 26.1385 42.7002 29.9384Z" fill="black"/>
</svg>
