<svg width="66" height="66" viewBox="0 0 66 66" fill="none" xmlns="http://www.w3.org/2000/svg">
<g clip-path="url(#clip0)">
<path d="M31.625 12.3749C26.3175 12.3749 22 8.34889 22 3.39889C22 2.79114 22.066 2.20264 22.2007 1.60589C22.33 1.04214 22.6875 0.560894 23.1907 0.274894C23.6912 -0.0138558 24.2825 -0.0771059 24.8408 0.0988941C25.9298 0.445394 26.961 0.844144 27.9923 1.31714C30.437 2.42264 32.8158 2.41989 35.2605 1.31439C36.289 0.844144 37.3203 0.445394 38.4093 0.0988941C38.962 -0.0798559 39.5588 -0.0166059 40.062 0.272144C40.5653 0.558144 40.9228 1.04214 41.0493 1.60589C41.184 2.20539 41.25 2.79114 41.25 3.39889C41.25 8.34889 36.9325 12.3749 31.625 12.3749Z" fill="black"/>
<path d="M41.8082 66C38.5797 66 35.7967 63.6707 35.189 60.4642L32.9945 48.499C32.868 47.8115 32.2795 47.3 31.625 47.3C30.9705 47.3 30.382 47.8143 30.2582 48.4935L28.0637 60.4478C27.4505 63.6708 24.6702 66 21.4417 66C17.9795 66 15.1057 63.371 14.7592 59.8867L13.9095 51.7467C13.5987 48.9032 13.0075 46.0735 12.1605 43.34L10.4885 38.027C9.0035 33.308 8.25 28.424 8.25 23.5125C8.25 18.128 12.5702 13.75 17.8832 13.75C19.3022 13.75 20.6057 13.893 21.9202 14.1763C23.1522 14.4403 24.046 15.5127 24.0872 16.775C24.222 20.9028 27.533 24.1395 31.625 24.1395C35.717 24.1395 39.028 20.9055 39.1627 16.775C39.204 15.5127 40.0977 14.4403 41.3297 14.1763C42.6442 13.893 43.9478 13.75 45.21 13.75C47.971 13.75 50.3992 14.7757 52.2087 16.6347C54.01 18.4855 55 20.9275 55 23.5125C55 28.4268 54.2465 33.308 52.7615 38.027L51.0867 43.351C50.2425 46.0708 49.654 48.9033 49.3405 51.7605L48.488 59.9005C48.1442 63.371 45.2705 66 41.8082 66ZM31.625 41.8C34.9525 41.8 37.8042 44.2035 38.4065 47.5145L40.5955 59.4578C40.7082 60.0545 41.2197 60.5 41.8082 60.5C42.4325 60.5 42.9522 60.0023 43.0155 59.3423L43.8707 51.1747C44.2227 47.9572 44.8827 44.7782 45.8342 41.712L47.5117 36.377C48.8317 32.1915 49.5 27.863 49.5 23.5125C49.5 22.385 49.0517 21.2767 48.268 20.471C47.267 19.4397 45.738 19.1923 44.3822 19.2857C43.1282 25.2478 37.9087 29.6423 31.625 29.6423C25.3385 29.6423 20.119 25.2478 18.8677 19.283C18.59 19.2583 18.3122 19.25 18.04 19.25C15.6035 19.25 13.75 21.1613 13.75 23.5125C13.75 27.863 14.4182 32.1915 15.7382 36.3743L17.413 41.6982C18.3672 44.7755 19.0272 47.9545 19.3792 51.1583L20.2317 59.3257C20.2977 60.0023 20.8175 60.5 21.4417 60.5C22.0302 60.5 22.5417 60.0545 22.6572 59.4385L24.8462 47.509C25.4457 44.2035 28.2975 41.8 31.625 41.8Z" fill="black"/>
</g>
<defs>
<clipPath id="clip0">
<rect width="66" height="66" fill="white"/>
</clipPath>
</defs>
</svg>
