<svg width="78" height="66" viewBox="0 0 78 66" fill="none" xmlns="http://www.w3.org/2000/svg">
<path d="M31.6875 26.6018C29.8147 26.6018 28.2372 27.8206 25.5938 27.8206C22.9597 27.8206 21.3674 26.6018 19.5 26.6018C15.7933 26.6018 14.4727 29.8283 14.4727 32.8479C14.4727 35.9324 15.2103 39.9512 16.3977 43.3363C17.3059 45.926 18.2398 47.4726 18.8909 48.2467C18.9354 48.1082 18.9778 47.9733 19.0154 47.8533C19.7086 45.6439 20.9989 41.5313 25.5938 41.5313C30.1886 41.5313 31.4789 45.6439 32.1721 47.8532C32.2097 47.9732 32.2521 48.108 32.2966 48.2465C34.7266 45.3578 36.7148 37.8535 36.7148 32.8479C36.7148 29.8283 35.3942 26.6018 31.6875 26.6018Z" fill="#4CB4E2"/>
<path d="M58.5 26.6018C56.6272 26.6018 55.0497 27.8206 52.4062 27.8206C49.7722 27.8206 48.1799 26.6018 46.3125 26.6018C42.6058 26.6018 41.2852 29.8283 41.2852 32.8479C41.2852 35.9324 42.0228 39.9512 43.2102 43.3363C44.1184 45.926 45.0523 47.4726 45.7034 48.2467C45.7479 48.1082 45.7903 47.9733 45.8279 47.8533C46.5211 45.6439 47.8114 41.5313 52.4062 41.5313C57.0011 41.5313 58.2914 45.6439 58.9846 47.8532C59.0222 47.9732 59.0646 48.108 59.1091 48.2465C61.5391 45.3578 63.5273 37.8535 63.5273 32.8479C63.5273 29.8283 62.2067 26.6018 58.5 26.6018Z" fill="#4CB4E2"/>
<path d="M75.7148 6.1875H66.8789V9.84375C66.8789 11.1058 65.8558 12.1289 64.5938 12.1289C63.3317 12.1289 62.3086 11.1058 62.3086 9.84375V6.1875H15.6914V9.84375C15.6914 11.1058 14.6683 12.1289 13.4062 12.1289C12.1442 12.1289 11.1211 11.1058 11.1211 9.84375V6.1875H2.28516C1.02314 6.1875 0 7.21064 0 8.47266V63.4688C0 64.7308 1.02314 65.7539 2.28516 65.7539H75.7148C76.9769 65.7539 78 64.7308 78 63.4688V8.47266C78 7.21064 76.9769 6.1875 75.7148 6.1875ZM65.667 45.5329C63.7059 50.7625 61.2946 53.4141 58.5 53.4141C55.9394 53.4141 55.1478 50.8909 54.6239 49.2214C53.8372 46.714 53.402 46.1016 52.4062 46.1016C51.4105 46.1016 50.9753 46.7138 50.1886 49.2214C49.6647 50.8911 48.8731 53.4141 46.3125 53.4141C42.5717 53.4141 40.2692 48.6513 39 45.1302C37.7313 48.65 35.4288 53.4141 31.6875 53.4141C29.1269 53.4141 28.3353 50.8909 27.8114 49.2214C27.0247 46.714 26.5895 46.1016 25.5938 46.1016C24.598 46.1016 24.1628 46.7138 23.3761 49.2214C22.8522 50.8911 22.0606 53.4141 19.5 53.4141C16.7054 53.4141 14.2941 50.7624 12.333 45.5329C10.8338 41.5348 9.90234 36.6742 9.90234 32.8478C9.90234 26.4792 13.8491 22.0314 19.5 22.0314C22.2836 22.0314 23.9295 23.2502 25.5938 23.2502C27.2499 23.2502 28.9126 22.0314 31.6875 22.0314C34.7412 22.0314 37.2954 23.3321 39 25.5312C40.7046 23.3323 43.2588 22.0314 46.3125 22.0314C49.0961 22.0314 50.742 23.2502 52.4062 23.2502C54.0624 23.2502 55.7251 22.0314 58.5 22.0314C64.1509 22.0314 68.0977 26.4792 68.0977 32.8478C68.0977 36.6742 67.1662 41.5348 65.667 45.5329Z" fill="#4CB4E2"/>
<path d="M15.6914 2.53125C15.6914 1.26923 14.6683 0.246094 13.4062 0.246094C12.1442 0.246094 11.1211 1.26923 11.1211 2.53125V6.1875H15.6914V2.53125Z" fill="#4CB4E2"/>
<path d="M66.8789 2.53125C66.8789 1.26923 65.8558 0.246094 64.5938 0.246094C63.3317 0.246094 62.3086 1.26923 62.3086 2.53125V6.1875H66.8789V2.53125Z" fill="#4CB4E2"/>
</svg>
